<svg width="128" height="128" viewBox="0 0 128 128" fill="none" xmlns="http://www.w3.org/2000/svg">
  <circle cx="64" cy="64" r="58" fill="#F8F4EC" stroke="#C9D2C5" stroke-width="2"/>
  <circle cx="64" cy="64" r="50" stroke="#9FAF9E" stroke-width="1.6" stroke-dasharray="3 5" opacity=".9"/>

  <!-- crescent -->
  <path d="M43 24C29 35 22 50 22 66C22 91 41 109 65 109C77 109 88 104 96 96C88 101 80 104 70 104C45 104 27 86 27 62C27 46 33 33 43 24Z" fill="#A9B9A7"/>

  <!-- monogram -->
  <text x="54" y="78"
        text-anchor="middle"
        font-family="Georgia, 'Times New Roman', serif"
        font-size="55"
        font-weight="600"
        fill="#435846">T</text>
  <text x="72" y="81"
        text-anchor="middle"
        font-family="Georgia, 'Times New Roman', serif"
        font-size="30"
        font-style="italic"
        fill="#5C735F">H</text>

  <!-- small sparkle -->
  <path d="M90 30L92 36L98 38L92 40L90 46L88 40L82 38L88 36L90 30Z" fill="#D9A1B7"/>

  <!-- branch -->
  <path d="M75 93C87 89 96 78 101 62" stroke="#5C735F" stroke-width="2.2" stroke-linecap="round"/>
  <path d="M82 88C80 82 82 78 87 76C88 82 86 86 82 88Z" fill="#70866F"/>
  <path d="M89 82C87 76 89 72 94 70C95 76 93 80 89 82Z" fill="#70866F"/>
  <path d="M95 74C93 68 95 64 100 62C101 68 99 72 95 74Z" fill="#70866F"/>
  <path d="M79 91C75 88 73 85 74 81C79 82 82 85 79 91Z" fill="#8FA08D"/>
  <path d="M86 86C82 83 80 80 81 76C86 77 89 80 86 86Z" fill="#8FA08D"/>
</svg>
